# xmcd
#
# Track frame offsets:
#	150
#	23402
#	40116
#	63020
#	82458
#	102089
#	122745
#	149626
#	174164
#	189923
#	215064
#	241625
#	263652
#	286144
#	308522
#	335205
#
# Disc length: 4763 seconds
#
# Revision: 1
# Processed by: cddbd v1.4PL0 Copyright (c) Steve Scherf et al.
# Submitted via: audiograbber 1.82.01
#
DISCID=d9129910
DTITLE=Gregorian - Mystic Hits
DYEAR=2001
DGENRE=Ambient
TTITLE0=Join Me
TTITLE1=Enae Tulma
TTITLE2=Vienna
TTITLE3=The Sound Of Silence
TTITLE4=Fade To Grey
TTITLE5=Only You
TTITLE6=Brothers in Arms
TTITLE7=Don't Give Up
TTITLE8=Blue Monday
TTITLE9=Tears In Heaven
TTITLE10=Losing My Religion
TTITLE11=Seaborough Fair
TTITLE12=Sacrifice
TTITLE13=My Tribe
TTITLE14=Wicked Game
TTITLE15=When A Man lovers A Woman
EXTD=
EXTT0=
EXTT1=
EXTT2=
EXTT3=
EXTT4=
EXTT5=
EXTT6=
EXTT7=
EXTT8=
EXTT9=
EXTT10=
EXTT11=
EXTT12=
EXTT13=
EXTT14=
EXTT15=
PLAYORDER=
